<?xml version="1.0" encoding="UTF-8" standalone="no" ?>
<!DOCTYPE svg PUBLIC "-//W3C//DTD SVG 1.1//EN" "http://www.w3.org/Graphics/SVG/1.1/DTD/svg11.dtd">
<svg xmlns="http://www.w3.org/2000/svg" xmlns:xlink="http://www.w3.org/1999/xlink" version="1.1" width="645.1059" height="480" viewBox="0 0 645.1059 480" xml:space="preserve">
<desc>Created with Fabric.js 5.3.0</desc>
<defs>
</defs>
<g transform="matrix(0.9193779578 0 0 1.0685080718 322.552238806 44.6359210975)" id="kGaVNLeD0VDIf4CcStLsE"  >
<path style="stroke: rgb(0,0,0); stroke-width: 1; stroke-dasharray: none; stroke-linecap: butt; stroke-dashoffset: 0; stroke-linejoin: miter; stroke-miterlimit: 4; fill: rgb(0,0,0); fill-rule: nonzero; opacity: 1;"  transform=" translate(0, -0.000005)" d="M -43.88707 -30.56825 L 43.88707 -30.56825 L 43.88707 -12.07057 L 43.88707 30.56826 L -43.88707 30.56826 L -43.88707 -30.56824" stroke-linecap="round" />
</g>
<g transform="matrix(0.8864265928 0 0 0.8864265928 322.5522388063 44.6359210975)" id="U-q4Y7pECk9NQB0CSvy7t"  >
<g style=""   >
		<g transform="matrix(1 0 0 1 0 0)" id="TVigr2SWccvSzJoLMT4fl"  >
<path style="stroke: none; stroke-width: 1; stroke-dasharray: none; stroke-linecap: butt; stroke-dashoffset: 0; stroke-linejoin: miter; stroke-miterlimit: 4; fill: rgb(179,181,179); fill-rule: nonzero; opacity: 1;"  transform=" translate(-40, -40)" d="M 76.5 6.6 L 3.5 6.6 C 1.6 6.6 0 8.1 0 10.1 L 0 61.300000000000004 C 0 62.800000000000004 1.3 64.10000000000001 2.8 64.10000000000001 L 32.1 64.10000000000001 L 30.8 71.10000000000001 L 29.7 71.10000000000001 C 29 71.10000000000001 28.5 71.60000000000001 28.5 72.30000000000001 L 28.5 73.4 L 51.4 73.4 L 51.4 72.30000000000001 C 51.4 71.60000000000001 50.9 71.10000000000001 50.199999999999996 71.10000000000001 L 49.099999999999994 71.10000000000001 L 47.89999999999999 64.10000000000001 L 77.19999999999999 64.10000000000001 C 78.69999999999999 64.10000000000001 79.99999999999999 62.80000000000001 79.99999999999999 61.30000000000001 L 79.99999999999999 10.1 C 80 8.1 78.4 6.6 76.5 6.6 z M 40 8.1 C 40.6 8.1 41.1 8.6 41.1 9.2 C 41.1 9.799999999999999 40.6 10.299999999999999 40 10.299999999999999 C 39.4 10.299999999999999 38.9 9.799999999999999 38.9 9.2 C 38.9 8.6 39.4 8.1 40 8.1 z" stroke-linecap="round" />
</g>
		<g transform="matrix(1 0 0 1 0 -30.7936291501)" id="Ya_9PgnjNdOw9o-l2_Xbk"  >
<path style="stroke: none; stroke-width: 1; stroke-dasharray: none; stroke-linecap: butt; stroke-dashoffset: 0; stroke-linejoin: miter; stroke-miterlimit: 4; fill: rgb(255,255,255); fill-rule: nonzero; opacity: 1;"  transform=" translate(-40, -9.2063708499)" d="M 38.9 9.2 C 38.9 8.6 39.4 8.1 40 8.1 C 40.6 8.1 41.1 8.6 41.1 9.2 C 41.1 9.799999999999999 40.6 10.299999999999999 40 10.299999999999999 C 39.4 10.4 38.9 9.9 38.9 9.2 z" stroke-linecap="round" />
</g>
		<g transform="matrix(1 0 0 1 0 -6.85)" id="KpGnD86hqBNatmHqYE5Sp"  >
<path style="stroke: none; stroke-width: 1; stroke-dasharray: none; stroke-linecap: butt; stroke-dashoffset: 0; stroke-linejoin: miter; stroke-miterlimit: 4; fill: rgb(255,255,255); fill-rule: nonzero; opacity: 1;"  transform=" translate(-40, -33.15)" d="M 5 11.7 L 75 11.7 L 75 54.599999999999994 L 5 54.599999999999994 L 5 11.7 z" stroke-linecap="round" />
</g>
</g>
</g>
<g transform="matrix(0.9193779578 0 0 1.0685080718 52.5522388063 434.6359210975)" id="Fsx6LGK-OKLF-HHlJ-78J"  >
<path style="stroke: rgb(0,0,0); stroke-width: 1; stroke-dasharray: none; stroke-linecap: butt; stroke-dashoffset: 0; stroke-linejoin: miter; stroke-miterlimit: 4; fill: rgb(0,0,0); fill-rule: nonzero; opacity: 1;"  transform=" translate(0, -0.000005)" d="M -43.88707 -30.56825 L 43.88707 -30.56825 L 43.88707 -12.07057 L 43.88707 30.56826 L -43.88707 30.56826 L -43.88707 -30.56824" stroke-linecap="round" />
</g>
<g transform="matrix(0.8864265928 0 0 0.8864265928 52.5522388066 434.6359210975)" id="5k2tTESHd60pxR7EwiLnQ"  >
<g style=""   >
		<g transform="matrix(1 0 0 1 0 0)" id="3jECe5qcIvtJaQAxY7Bba"  >
<path style="stroke: none; stroke-width: 1; stroke-dasharray: none; stroke-linecap: butt; stroke-dashoffset: 0; stroke-linejoin: miter; stroke-miterlimit: 4; fill: rgb(179,181,179); fill-rule: nonzero; opacity: 1;"  transform=" translate(-40, -40)" d="M 76.5 6.6 L 3.5 6.6 C 1.6 6.6 0 8.1 0 10.1 L 0 61.300000000000004 C 0 62.800000000000004 1.3 64.10000000000001 2.8 64.10000000000001 L 32.1 64.10000000000001 L 30.8 71.10000000000001 L 29.7 71.10000000000001 C 29 71.10000000000001 28.5 71.60000000000001 28.5 72.30000000000001 L 28.5 73.4 L 51.4 73.4 L 51.4 72.30000000000001 C 51.4 71.60000000000001 50.9 71.10000000000001 50.199999999999996 71.10000000000001 L 49.099999999999994 71.10000000000001 L 47.89999999999999 64.10000000000001 L 77.19999999999999 64.10000000000001 C 78.69999999999999 64.10000000000001 79.99999999999999 62.80000000000001 79.99999999999999 61.30000000000001 L 79.99999999999999 10.1 C 80 8.1 78.4 6.6 76.5 6.6 z M 40 8.1 C 40.6 8.1 41.1 8.6 41.1 9.2 C 41.1 9.799999999999999 40.6 10.299999999999999 40 10.299999999999999 C 39.4 10.299999999999999 38.9 9.799999999999999 38.9 9.2 C 38.9 8.6 39.4 8.1 40 8.1 z" stroke-linecap="round" />
</g>
		<g transform="matrix(1 0 0 1 0 -30.7936291501)" id="JEtdDlZ4CwjHV6SWz_vgB"  >
<path style="stroke: none; stroke-width: 1; stroke-dasharray: none; stroke-linecap: butt; stroke-dashoffset: 0; stroke-linejoin: miter; stroke-miterlimit: 4; fill: rgb(255,255,255); fill-rule: nonzero; opacity: 1;"  transform=" translate(-40, -9.2063708499)" d="M 38.9 9.2 C 38.9 8.6 39.4 8.1 40 8.1 C 40.6 8.1 41.1 8.6 41.1 9.2 C 41.1 9.799999999999999 40.6 10.299999999999999 40 10.299999999999999 C 39.4 10.4 38.9 9.9 38.9 9.2 z" stroke-linecap="round" />
</g>
		<g transform="matrix(1 0 0 1 0 -6.85)" id="4hWHJNiYL0aYj4Rm9Sti_"  >
<path style="stroke: none; stroke-width: 1; stroke-dasharray: none; stroke-linecap: butt; stroke-dashoffset: 0; stroke-linejoin: miter; stroke-miterlimit: 4; fill: rgb(255,255,255); fill-rule: nonzero; opacity: 1;"  transform=" translate(-40, -33.15)" d="M 5 11.7 L 75 11.7 L 75 54.599999999999994 L 5 54.599999999999994 L 5 11.7 z" stroke-linecap="round" />
</g>
</g>
</g>
<g transform="matrix(0.9193779578 0 0 1.0685080718 592.5522388063 434.6359210975)" id="71ges6d2ta2Ri4254ohR_"  >
<path style="stroke: rgb(0,0,0); stroke-width: 1; stroke-dasharray: none; stroke-linecap: butt; stroke-dashoffset: 0; stroke-linejoin: miter; stroke-miterlimit: 4; fill: rgb(0,0,0); fill-rule: nonzero; opacity: 1;"  transform=" translate(0, -0.000005)" d="M -43.88707 -30.56825 L 43.88707 -30.56825 L 43.88707 -12.07057 L 43.88707 30.56826 L -43.88707 30.56826 L -43.88707 -30.56824" stroke-linecap="round" />
</g>
<g transform="matrix(0.8864265928 0 0 0.8864265928 592.5522388066 434.6359210975)" id="nHcWZeOtNfXAOwTXAjoDe"  >
<g style=""   >
		<g transform="matrix(1 0 0 1 0 0)" id="PlNlFGpY_WHExYpjVXeWz"  >
<path style="stroke: none; stroke-width: 1; stroke-dasharray: none; stroke-linecap: butt; stroke-dashoffset: 0; stroke-linejoin: miter; stroke-miterlimit: 4; fill: rgb(179,181,179); fill-rule: nonzero; opacity: 1;"  transform=" translate(-40, -40)" d="M 76.5 6.6 L 3.5 6.6 C 1.6 6.6 0 8.1 0 10.1 L 0 61.300000000000004 C 0 62.800000000000004 1.3 64.10000000000001 2.8 64.10000000000001 L 32.1 64.10000000000001 L 30.8 71.10000000000001 L 29.7 71.10000000000001 C 29 71.10000000000001 28.5 71.60000000000001 28.5 72.30000000000001 L 28.5 73.4 L 51.4 73.4 L 51.4 72.30000000000001 C 51.4 71.60000000000001 50.9 71.10000000000001 50.199999999999996 71.10000000000001 L 49.099999999999994 71.10000000000001 L 47.89999999999999 64.10000000000001 L 77.19999999999999 64.10000000000001 C 78.69999999999999 64.10000000000001 79.99999999999999 62.80000000000001 79.99999999999999 61.30000000000001 L 79.99999999999999 10.1 C 80 8.1 78.4 6.6 76.5 6.6 z M 40 8.1 C 40.6 8.1 41.1 8.6 41.1 9.2 C 41.1 9.799999999999999 40.6 10.299999999999999 40 10.299999999999999 C 39.4 10.299999999999999 38.9 9.799999999999999 38.9 9.2 C 38.9 8.6 39.4 8.1 40 8.1 z" stroke-linecap="round" />
</g>
		<g transform="matrix(1 0 0 1 0 -30.7936291501)" id="3uDHEbLrl0Rhl1zxLFUec"  >
<path style="stroke: none; stroke-width: 1; stroke-dasharray: none; stroke-linecap: butt; stroke-dashoffset: 0; stroke-linejoin: miter; stroke-miterlimit: 4; fill: rgb(255,255,255); fill-rule: nonzero; opacity: 1;"  transform=" translate(-40, -9.2063708499)" d="M 38.9 9.2 C 38.9 8.6 39.4 8.1 40 8.1 C 40.6 8.1 41.1 8.6 41.1 9.2 C 41.1 9.799999999999999 40.6 10.299999999999999 40 10.299999999999999 C 39.4 10.4 38.9 9.9 38.9 9.2 z" stroke-linecap="round" />
</g>
		<g transform="matrix(1 0 0 1 0 -6.85)" id="kqwBHl-t5kou5O022mH5e"  >
<path style="stroke: none; stroke-width: 1; stroke-dasharray: none; stroke-linecap: butt; stroke-dashoffset: 0; stroke-linejoin: miter; stroke-miterlimit: 4; fill: rgb(255,255,255); fill-rule: nonzero; opacity: 1;"  transform=" translate(-40, -33.15)" d="M 5 11.7 L 75 11.7 L 75 54.599999999999994 L 5 54.599999999999994 L 5 11.7 z" stroke-linecap="round" />
</g>
</g>
</g>
<g transform="matrix(0.9193779578 0 0 1.0685080718 52.5522388063 224.6359210975)" id="r5N16WNXkiMmU70B_zv9M"  >
<path style="stroke: rgb(0,0,0); stroke-width: 1; stroke-dasharray: none; stroke-linecap: butt; stroke-dashoffset: 0; stroke-linejoin: miter; stroke-miterlimit: 4; fill: rgb(0,0,0); fill-rule: nonzero; opacity: 1;"  transform=" translate(0, -0.000005)" d="M -43.88707 -30.56825 L 43.88707 -30.56825 L 43.88707 -12.07057 L 43.88707 30.56826 L -43.88707 30.56826 L -43.88707 -30.56824" stroke-linecap="round" />
</g>
<g transform="matrix(0.8864265928 0 0 0.8864265928 52.5522388066 224.6359210975)" id="UxjDJzaxv_0eAFwhEzJe6"  >
<g style=""   >
		<g transform="matrix(1 0 0 1 0 0)" id="bIyq2QsCSxpFwwEqfaTwy"  >
<path style="stroke: none; stroke-width: 1; stroke-dasharray: none; stroke-linecap: butt; stroke-dashoffset: 0; stroke-linejoin: miter; stroke-miterlimit: 4; fill: rgb(179,181,179); fill-rule: nonzero; opacity: 1;"  transform=" translate(-40, -40)" d="M 76.5 6.6 L 3.5 6.6 C 1.6 6.6 0 8.1 0 10.1 L 0 61.300000000000004 C 0 62.800000000000004 1.3 64.10000000000001 2.8 64.10000000000001 L 32.1 64.10000000000001 L 30.8 71.10000000000001 L 29.7 71.10000000000001 C 29 71.10000000000001 28.5 71.60000000000001 28.5 72.30000000000001 L 28.5 73.4 L 51.4 73.4 L 51.4 72.30000000000001 C 51.4 71.60000000000001 50.9 71.10000000000001 50.199999999999996 71.10000000000001 L 49.099999999999994 71.10000000000001 L 47.89999999999999 64.10000000000001 L 77.19999999999999 64.10000000000001 C 78.69999999999999 64.10000000000001 79.99999999999999 62.80000000000001 79.99999999999999 61.30000000000001 L 79.99999999999999 10.1 C 80 8.1 78.4 6.6 76.5 6.6 z M 40 8.1 C 40.6 8.1 41.1 8.6 41.1 9.2 C 41.1 9.799999999999999 40.6 10.299999999999999 40 10.299999999999999 C 39.4 10.299999999999999 38.9 9.799999999999999 38.9 9.2 C 38.9 8.6 39.4 8.1 40 8.1 z" stroke-linecap="round" />
</g>
		<g transform="matrix(1 0 0 1 0 -30.7936291501)" id="pZh5IhB9H9lTTqDWRw8_e"  >
<path style="stroke: none; stroke-width: 1; stroke-dasharray: none; stroke-linecap: butt; stroke-dashoffset: 0; stroke-linejoin: miter; stroke-miterlimit: 4; fill: rgb(255,255,255); fill-rule: nonzero; opacity: 1;"  transform=" translate(-40, -9.2063708499)" d="M 38.9 9.2 C 38.9 8.6 39.4 8.1 40 8.1 C 40.6 8.1 41.1 8.6 41.1 9.2 C 41.1 9.799999999999999 40.6 10.299999999999999 40 10.299999999999999 C 39.4 10.4 38.9 9.9 38.9 9.2 z" stroke-linecap="round" />
</g>
		<g transform="matrix(1 0 0 1 0 -6.85)" id="O3XbRGfHXSjWO9sS_6HFj"  >
<path style="stroke: none; stroke-width: 1; stroke-dasharray: none; stroke-linecap: butt; stroke-dashoffset: 0; stroke-linejoin: miter; stroke-miterlimit: 4; fill: rgb(255,255,255); fill-rule: nonzero; opacity: 1;"  transform=" translate(-40, -33.15)" d="M 5 11.7 L 75 11.7 L 75 54.599999999999994 L 5 54.599999999999994 L 5 11.7 z" stroke-linecap="round" />
</g>
</g>
</g>
<g transform="matrix(0.9193779578 0 0 1.0685080718 592.5522388063 224.6359210975)" id="-gkzWjpjW5j_WGgNFL0EE"  >
<path style="stroke: rgb(0,0,0); stroke-width: 1; stroke-dasharray: none; stroke-linecap: butt; stroke-dashoffset: 0; stroke-linejoin: miter; stroke-miterlimit: 4; fill: rgb(0,0,0); fill-rule: nonzero; opacity: 1;"  transform=" translate(0, -0.000005)" d="M -43.88707 -30.56825 L 43.88707 -30.56825 L 43.88707 -12.07057 L 43.88707 30.56826 L -43.88707 30.56826 L -43.88707 -30.56824" stroke-linecap="round" />
</g>
<g transform="matrix(0.8864265928 0 0 0.8864265928 592.5522388066 224.6359210975)" id="mf3rH6rXWuNHRqeew5e7R"  >
<g style=""   >
		<g transform="matrix(1 0 0 1 0 0)" id="4O4bnsYm5QMB9nMmuNfJk"  >
<path style="stroke: none; stroke-width: 1; stroke-dasharray: none; stroke-linecap: butt; stroke-dashoffset: 0; stroke-linejoin: miter; stroke-miterlimit: 4; fill: rgb(179,181,179); fill-rule: nonzero; opacity: 1;"  transform=" translate(-40, -40)" d="M 76.5 6.6 L 3.5 6.6 C 1.6 6.6 0 8.1 0 10.1 L 0 61.300000000000004 C 0 62.800000000000004 1.3 64.10000000000001 2.8 64.10000000000001 L 32.1 64.10000000000001 L 30.8 71.10000000000001 L 29.7 71.10000000000001 C 29 71.10000000000001 28.5 71.60000000000001 28.5 72.30000000000001 L 28.5 73.4 L 51.4 73.4 L 51.4 72.30000000000001 C 51.4 71.60000000000001 50.9 71.10000000000001 50.199999999999996 71.10000000000001 L 49.099999999999994 71.10000000000001 L 47.89999999999999 64.10000000000001 L 77.19999999999999 64.10000000000001 C 78.69999999999999 64.10000000000001 79.99999999999999 62.80000000000001 79.99999999999999 61.30000000000001 L 79.99999999999999 10.1 C 80 8.1 78.4 6.6 76.5 6.6 z M 40 8.1 C 40.6 8.1 41.1 8.6 41.1 9.2 C 41.1 9.799999999999999 40.6 10.299999999999999 40 10.299999999999999 C 39.4 10.299999999999999 38.9 9.799999999999999 38.9 9.2 C 38.9 8.6 39.4 8.1 40 8.1 z" stroke-linecap="round" />
</g>
		<g transform="matrix(1 0 0 1 0 -30.7936291501)" id="NJYdDzdZNyWC5nU9eGXVu"  >
<path style="stroke: none; stroke-width: 1; stroke-dasharray: none; stroke-linecap: butt; stroke-dashoffset: 0; stroke-linejoin: miter; stroke-miterlimit: 4; fill: rgb(255,255,255); fill-rule: nonzero; opacity: 1;"  transform=" translate(-40, -9.2063708499)" d="M 38.9 9.2 C 38.9 8.6 39.4 8.1 40 8.1 C 40.6 8.1 41.1 8.6 41.1 9.2 C 41.1 9.799999999999999 40.6 10.299999999999999 40 10.299999999999999 C 39.4 10.4 38.9 9.9 38.9 9.2 z" stroke-linecap="round" />
</g>
		<g transform="matrix(1 0 0 1 0 -6.85)" id="ooQWdAGbKkaDhhJT5FI5I"  >
<path style="stroke: none; stroke-width: 1; stroke-dasharray: none; stroke-linecap: butt; stroke-dashoffset: 0; stroke-linejoin: miter; stroke-miterlimit: 4; fill: rgb(255,255,255); fill-rule: nonzero; opacity: 1;"  transform=" translate(-40, -33.15)" d="M 5 11.7 L 75 11.7 L 75 54.599999999999994 L 5 54.599999999999994 L 5 11.7 z" stroke-linecap="round" />
</g>
</g>
</g>
<g transform="matrix(1 0 0 1 187.5522388064 134.6359210975)" id="1zW04VGjIP9iX-Z7_EVN6"  >
<path style="stroke: rgb(0,0,0); stroke-width: 3; stroke-dasharray: none; stroke-linecap: butt; stroke-dashoffset: 0; stroke-linejoin: miter; stroke-miterlimit: 4; fill: rgb(255,255,255); fill-opacity: 0; fill-rule: nonzero; opacity: 1;"  transform=" translate(0, 0)" d="M -99.09972 59.95014 L 99.09973000000001 -59.95014" stroke-linecap="round" />
</g>
<g transform="matrix(1 0 0 1 320.098130426 224.6359210975)" id="cPt2mv4lLHVp6sjNDf04D"  >
<path style="stroke: rgb(0,0,0); stroke-width: 3; stroke-dasharray: none; stroke-linecap: butt; stroke-dashoffset: 0; stroke-linejoin: miter; stroke-miterlimit: 4; fill: rgb(255,255,255); fill-opacity: 0; fill-rule: nonzero; opacity: 1;"  transform=" translate(0, 0)" d="M -231.64561 0 L 231.64561999999998 0" stroke-linecap="round" />
</g>
<g transform="matrix(1 0 0 1 52.5522388063 329.6359210975)" id="Q0pMuEHmNhIQy5zM_nU2V"  >
<path style="stroke: rgb(0,0,0); stroke-width: 3; stroke-dasharray: none; stroke-linecap: butt; stroke-dashoffset: 0; stroke-linejoin: miter; stroke-miterlimit: 4; fill: rgb(255,255,255); fill-opacity: 0; fill-rule: nonzero; opacity: 1;"  transform=" translate(0, 0)" d="M 0 -71.80332 L 0 71.80332" stroke-linecap="round" />
</g>
<g transform="matrix(1 0 0 1 325.0063471869 329.6359210975)" id="V8VtF7N7V9_TePy4F1Ksa"  >
<path style="stroke: rgb(0,0,0); stroke-width: 3; stroke-dasharray: none; stroke-linecap: butt; stroke-dashoffset: 0; stroke-linejoin: miter; stroke-miterlimit: 4; fill: rgb(255,255,255); fill-opacity: 0; fill-rule: nonzero; opacity: 1;"  transform=" translate(0, 0)" d="M -231.64561 -71.80332 L 231.64561999999998 71.80332" stroke-linecap="round" />
</g>
<g transform="matrix(1 0 0 1 457.5522388064 136.4593309717)" id="q2l-S7M5bXztEud9XKPtg"  >
<path style="stroke: rgb(0,0,0); stroke-width: 3; stroke-dasharray: none; stroke-linecap: butt; stroke-dashoffset: 0; stroke-linejoin: miter; stroke-miterlimit: 4; fill: rgb(255,255,255); fill-opacity: 0; fill-rule: nonzero; opacity: 1;"  transform=" translate(0, 0)" d="M -99.09972 -58.62673 L 99.09973000000001 58.62673" stroke-linecap="round" />
</g>
<g transform="matrix(1 0 0 1 457.5522388064 239.6359210975)" id="Yv-knDuJR5AjfIhaBRz6u"  >
<path style="stroke: rgb(0,0,0); stroke-width: 3; stroke-dasharray: none; stroke-linecap: butt; stroke-dashoffset: 0; stroke-linejoin: miter; stroke-miterlimit: 4; fill: rgb(255,255,255); fill-opacity: 0; fill-rule: nonzero; opacity: 1;"  transform=" translate(0, 0)" d="M -99.59972 -164.95014 L 99.59973000000001 164.95014" stroke-linecap="round" />
</g>
<g transform="matrix(1 0 0 1 190.2563471867 241.2093309717)" id="w1LRZvh1eo8VWpCWMJim6"  >
<path style="stroke: rgb(0,0,0); stroke-width: 3; stroke-dasharray: none; stroke-linecap: butt; stroke-dashoffset: 0; stroke-linejoin: miter; stroke-miterlimit: 4; fill: rgb(255,255,255); fill-opacity: 0; fill-rule: nonzero; opacity: 1;"  transform=" translate(0, 0)" d="M 96.89561 -163.37673 L -96.89562000000001 163.37673" stroke-linecap="round" />
</g>
<g transform="matrix(1 0 0 1 592.5522388064 328.0625112233)" id="l0bNlnsRM8RXXMXJNPULr"  >
<path style="stroke: rgb(0,0,0); stroke-width: 3; stroke-dasharray: none; stroke-linecap: butt; stroke-dashoffset: 0; stroke-linejoin: miter; stroke-miterlimit: 4; fill: rgb(255,255,255); fill-opacity: 0; fill-rule: nonzero; opacity: 1;"  transform=" translate(0, 0)" d="M 0 -73.37673 L 0 73.37673" stroke-linecap="round" />
</g>
<g transform="matrix(1 0 0 1 322.8022388063 434.6359210975)" id="hMAsdj4KSBuOvMlvVsIQ3"  >
<path style="stroke: rgb(0,0,0); stroke-width: 3; stroke-dasharray: none; stroke-linecap: butt; stroke-dashoffset: 0; stroke-linejoin: miter; stroke-miterlimit: 4; fill: rgb(255,255,255); fill-opacity: 0; fill-rule: nonzero; opacity: 1;"  transform=" translate(0, 0)" d="M 229.44151 0 L -229.44150000000002 0" stroke-linecap="round" />
</g>
<g transform="matrix(1 0 0 1 322.8022388063 331.2093309717)" id="PEAIuz-jht6kFU7aUumAr"  >
<path style="stroke: rgb(0,0,0); stroke-width: 3; stroke-dasharray: none; stroke-linecap: butt; stroke-dashoffset: 0; stroke-linejoin: miter; stroke-miterlimit: 4; fill: rgb(255,255,255); fill-opacity: 0; fill-rule: nonzero; opacity: 1;"  transform=" translate(0, 0)" d="M 229.94151 -73.87673 L -229.94150000000002 73.87673" stroke-linecap="round" />
</g>
</svg>