<?xml version="1.0" encoding="UTF-8" standalone="no" ?>
<!DOCTYPE svg PUBLIC "-//W3C//DTD SVG 1.1//EN" "http://www.w3.org/Graphics/SVG/1.1/DTD/svg11.dtd">
<svg xmlns="http://www.w3.org/2000/svg" xmlns:xlink="http://www.w3.org/1999/xlink" version="1.1" width="529" height="441" viewBox="0 0 529 441" xml:space="preserve">
<desc>Created with Fabric.js 4.6.0</desc>
<defs>
</defs>
<g transform="matrix(1 0 0 0.16 297.12 18.76)" id="utgXDq1EM1iLeDP3oSl6z"  >
<path style="stroke: rgb(53,253,166); stroke-width: 0; stroke-dasharray: none; stroke-linecap: butt; stroke-dashoffset: 0; stroke-linejoin: miter; stroke-miterlimit: 4; fill: rgb(89,174,231); fill-rule: nonzero; opacity: 1;" vector-effect="non-scaling-stroke"  transform=" translate(0, 0)" d="M -76.51397 -76.51397 L 76.51397 -76.51397 L 76.51397 76.51397 L -76.51397 76.51397 z" stroke-linecap="round" />
</g>
<g transform="matrix(1 0 0 1 297.12 24.31)" style="" id="VhGXKEBtZ8brsVBIfzSHf"  >
		<text xml:space="preserve" font-family="Open Sans" font-size="17" font-style="normal" font-weight="700" letter-spacing="0.034" line-height="1" style="stroke: none; stroke-width: 1; stroke-dasharray: none; stroke-linecap: butt; stroke-dashoffset: 0; stroke-linejoin: miter; stroke-miterlimit: 4; fill: rgb(0,0,0); fill-rule: nonzero; opacity: 1; white-space: pre;" ><tspan x="-53.32" y="0.96" >I</tspan><tspan x="-47.66" y="0.96" >n</tspan><tspan x="-36.45" y="0.96" >f</tspan><tspan x="-29.84" y="0.96" >o</tspan><tspan x="-19.28" y="0.96" >r</tspan><tspan x="-11.52" y="0.96" >m</tspan><tspan x="5.2" y="0.96" >a</tspan><tspan x="15.51" y="0.96" >t</tspan><tspan x="22.92" y="0.96" >i</tspan><tspan x="28.14" y="0.96" >o</tspan><tspan x="38.7" y="0.96" >n</tspan></text>
</g>
<g transform="matrix(1 0 0 0.16 156.96 117.3)" id="ZMI4ZmTQ1bo37rGPLku7F"  >
<path style="stroke: rgb(53,253,166); stroke-width: 0; stroke-dasharray: none; stroke-linecap: butt; stroke-dashoffset: 0; stroke-linejoin: miter; stroke-miterlimit: 4; fill: rgb(89,174,231); fill-rule: nonzero; opacity: 1;" vector-effect="non-scaling-stroke"  transform=" translate(0, 0)" d="M -76.51397 -76.51397 L 76.51397 -76.51397 L 76.51397 76.51397 L -76.51397 76.51397 z" stroke-linecap="round" />
</g>
<g transform="matrix(1 0 0 1 156.96 121.55)" style="" id="_1bV3FWliB4DBa11N5Z8y"  >
		<text xml:space="preserve" font-family="Open Sans" font-size="17" font-style="normal" font-weight="600" letter-spacing="0.034" line-height="1" style="stroke: none; stroke-width: 1; stroke-dasharray: none; stroke-linecap: butt; stroke-dashoffset: 0; stroke-linejoin: miter; stroke-miterlimit: 4; fill: rgb(0,0,0); fill-rule: nonzero; opacity: 1; white-space: pre;" ><tspan x="-19.5" y="0.96" >D</tspan><tspan x="-7.01" y="0.96" >a</tspan><tspan x="2.89" y="0.96" >t</tspan><tspan x="9.64" y="0.96" >a</tspan></text>
</g>
<g transform="matrix(1 0 0 0.16 437.28 113.4)" id="7AUAAtUdrYXcKEprMNcwg"  >
<path style="stroke: rgb(53,253,166); stroke-width: 0; stroke-dasharray: none; stroke-linecap: butt; stroke-dashoffset: 0; stroke-linejoin: miter; stroke-miterlimit: 4; fill: rgb(89,174,231); fill-rule: nonzero; opacity: 1;" vector-effect="non-scaling-stroke"  transform=" translate(0, 0)" d="M -76.51397 -76.51397 L 76.51397 -76.51397 L 76.51397 76.51397 L -76.51397 76.51397 z" stroke-linecap="round" />
</g>
<g transform="matrix(1 0 0 1 437.28 117.65)" style="" id="-bryQRANuOgMgx0iGDqif"  >
		<text xml:space="preserve" font-family="Open Sans" font-size="17" font-style="normal" font-weight="600" letter-spacing="0.034" line-height="1" style="stroke: none; stroke-width: 1; stroke-dasharray: none; stroke-linecap: butt; stroke-dashoffset: 0; stroke-linejoin: miter; stroke-miterlimit: 4; fill: rgb(0,0,0); fill-rule: nonzero; opacity: 1; white-space: pre;" ><tspan x="-45.71" y="0.96" >I</tspan><tspan x="-40.49" y="0.96" >n</tspan><tspan x="-29.66" y="0.96" >s</tspan><tspan x="-21.35" y="0.96" >t</tspan><tspan x="-14.59" y="0.96" >r</tspan><tspan x="-7.22" y="0.96" >u</tspan><tspan x="3.61" y="0.96" >c</tspan><tspan x="12.09" y="0.96" >t</tspan><tspan x="18.85" y="0.96" >i</tspan><tspan x="23.62" y="0.96" >o</tspan><tspan x="34.03" y="0.96" >n</tspan></text>
</g>
<g transform="matrix(1 0 0 1 227.04 70.98)" id="DPX634INf-1C3GY5OIIEg"  >
<path style="stroke: rgb(0,0,0); stroke-width: 1; stroke-dasharray: none; stroke-linecap: butt; stroke-dashoffset: 0; stroke-linejoin: miter; stroke-miterlimit: 4; fill: rgb(255,255,255); fill-opacity: 0; fill-rule: nonzero; opacity: 1;" vector-effect="non-scaling-stroke"  transform=" translate(0, 0)" d="M 70.08101 -32.17948 L -70.081 32.179469999999995" stroke-linecap="round" />
</g>
<g transform="matrix(1 0 0 1 367.2 69.98)" id="wTD3A4fKNQgW8Y6pJ5ceQ"  >
<path style="stroke: rgb(0,0,0); stroke-width: 1; stroke-dasharray: none; stroke-linecap: butt; stroke-dashoffset: 0; stroke-linejoin: miter; stroke-miterlimit: 4; fill: rgb(255,255,255); fill-opacity: 0; fill-rule: nonzero; opacity: 1;" vector-effect="non-scaling-stroke"  transform=" translate(0, 0)" d="M 70.08101 31.17948 L -70.081 -31.17947" stroke-linecap="round" />
</g>
<g transform="matrix(0.83 0 0 0.13 68.53 197.91)" id="qUccoFxUqiPxSqJtSO7qB"  >
<path style="stroke: rgb(53,253,166); stroke-width: 0; stroke-dasharray: none; stroke-linecap: butt; stroke-dashoffset: 0; stroke-linejoin: miter; stroke-miterlimit: 4; fill: rgb(89,174,231); fill-rule: nonzero; opacity: 1;" vector-effect="non-scaling-stroke"  transform=" translate(0, 0)" d="M -76.51397 -76.51397 L 76.51397 -76.51397 L 76.51397 76.51397 L -76.51397 76.51397 z" stroke-linecap="round" />
</g>
<g transform="matrix(1 0 0 1 68.53 201.44)" style="" id="p9f1gCeQyxhMgKqjlnlQy"  >
		<text xml:space="preserve" font-family="Open Sans" font-size="14" font-style="normal" font-weight="600" letter-spacing="0.028" line-height="1" style="stroke: none; stroke-width: 1; stroke-dasharray: none; stroke-linecap: butt; stroke-dashoffset: 0; stroke-linejoin: miter; stroke-miterlimit: 4; fill: rgb(0,0,0); fill-rule: nonzero; opacity: 1; white-space: pre;" ><tspan x="-43.62" y="0.81" >n</tspan><tspan x="-34.69" y="0.81" >o</tspan><tspan x="-26.12" y="0.81" >n</tspan><tspan x="-17.2" y="0.81" >-</tspan><tspan x="-12.67" y="0.81" >n</tspan><tspan x="-3.74" y="0.81" >u</tspan><tspan x="5.18" y="0.81" >m</tspan><tspan x="18.56" y="0.81" >e</tspan><tspan x="26.66" y="0.81" >r</tspan><tspan x="32.73" y="0.81" >i</tspan><tspan x="36.66" y="0.81" >c</tspan></text>
</g>
<g transform="matrix(0.83 0 0 0.13 255.64 196.83)" id="-EJG8Sz68xQuRB-x0fl00"  >
<path style="stroke: rgb(53,253,166); stroke-width: 0; stroke-dasharray: none; stroke-linecap: butt; stroke-dashoffset: 0; stroke-linejoin: miter; stroke-miterlimit: 4; fill: rgb(89,174,231); fill-rule: nonzero; opacity: 1;" vector-effect="non-scaling-stroke"  transform=" translate(0, 0)" d="M -76.51397 -76.51397 L 76.51397 -76.51397 L 76.51397 76.51397 L -76.51397 76.51397 z" stroke-linecap="round" />
</g>
<g transform="matrix(1 0 0 1 255.68 201.44)" style="" id="CV4qb0NhihZ6LnU3hrJmO"  >
		<text xml:space="preserve" font-family="Open Sans" font-size="14" font-style="normal" font-weight="600" letter-spacing="0.028" line-height="1" style="stroke: none; stroke-width: 1; stroke-dasharray: none; stroke-linecap: butt; stroke-dashoffset: 0; stroke-linejoin: miter; stroke-miterlimit: 4; fill: rgb(0,0,0); fill-rule: nonzero; opacity: 1; white-space: pre;" ><tspan x="-28.14" y="0.81" >n</tspan><tspan x="-19.22" y="0.81" >u</tspan><tspan x="-10.3" y="0.81" >m</tspan><tspan x="3.09" y="0.81" >e</tspan><tspan x="11.18" y="0.81" >r</tspan><tspan x="17.25" y="0.81" >i</tspan><tspan x="21.18" y="0.81" >c</tspan></text>
</g>
<g transform="matrix(0.83 0 0 0.83 98.19 159.39)" id="XUFQPQuzUDXGhPXRC_4Fa"  >
<path style="stroke: rgb(0,0,0); stroke-width: 1; stroke-dasharray: none; stroke-linecap: butt; stroke-dashoffset: 0; stroke-linejoin: miter; stroke-miterlimit: 4; fill: rgb(255,255,255); fill-opacity: 0; fill-rule: nonzero; opacity: 1;" vector-effect="non-scaling-stroke"  transform=" translate(0, 0)" d="M 70.08101 -32.17948 L -70.081 32.179469999999995" stroke-linecap="round" />
</g>
<g transform="matrix(0.83 0 0 0.83 214.72 158.56)" id="S6ZNK0k1gV45lUkTwX5he"  >
<path style="stroke: rgb(0,0,0); stroke-width: 1; stroke-dasharray: none; stroke-linecap: butt; stroke-dashoffset: 0; stroke-linejoin: miter; stroke-miterlimit: 4; fill: rgb(255,255,255); fill-opacity: 0; fill-rule: nonzero; opacity: 1;" vector-effect="non-scaling-stroke"  transform=" translate(0, 0)" d="M 70.08101 31.17948 L -70.081 -31.17947" stroke-linecap="round" />
</g>
<g transform="matrix(0.83 0 0 0.13 168.63 272.5)" id="__I_Kz8q6MVwx84-dcm3d"  >
<path style="stroke: rgb(53,253,166); stroke-width: 0; stroke-dasharray: none; stroke-linecap: butt; stroke-dashoffset: 0; stroke-linejoin: miter; stroke-miterlimit: 4; fill: rgb(89,174,231); fill-rule: nonzero; opacity: 1;" vector-effect="non-scaling-stroke"  transform=" translate(0, 0)" d="M -76.51397 -76.51397 L 76.51397 -76.51397 L 76.51397 76.51397 L -76.51397 76.51397 z" stroke-linecap="round" />
</g>
<g transform="matrix(1 0 0 1 169.56 276.03)" style="" id="JGV853SC3hE-fAIz-9oqK"  >
		<text xml:space="preserve" font-family="Open Sans" font-size="14" font-style="normal" font-weight="600" letter-spacing="0.028" line-height="1" style="stroke: none; stroke-width: 1; stroke-dasharray: none; stroke-linecap: butt; stroke-dashoffset: 0; stroke-linejoin: miter; stroke-miterlimit: 4; fill: rgb(0,0,0); fill-rule: nonzero; opacity: 1; white-space: pre;" ><tspan x="-47.54" y="0.81" >f</tspan><tspan x="-42.45" y="0.81" >l</tspan><tspan x="-38.52" y="0.81" >o</tspan><tspan x="-29.95" y="0.81" >a</tspan><tspan x="-21.8" y="0.81" >t</tspan><tspan x="-16.23" y="0.81" >i</tspan><tspan x="-12.3" y="0.81" >n</tspan><tspan x="-3.38" y="0.81" >g</tspan><tspan x="4.41" y="0.81" style="white-space: pre; "> </tspan><tspan x="8.07" y="0.81" >p</tspan><tspan x="16.82" y="0.81" >o</tspan><tspan x="25.39" y="0.81" >i</tspan><tspan x="29.32" y="0.81" >n</tspan><tspan x="38.24" y="0.81" >t</tspan></text>
</g>
<g transform="matrix(0.83 0 0 0.13 355.74 271.42)" id="GU2JCxyZ0M6Jxir0y68-h"  >
<path style="stroke: rgb(53,253,166); stroke-width: 0; stroke-dasharray: none; stroke-linecap: butt; stroke-dashoffset: 0; stroke-linejoin: miter; stroke-miterlimit: 4; fill: rgb(89,174,231); fill-rule: nonzero; opacity: 1;" vector-effect="non-scaling-stroke"  transform=" translate(0, 0)" d="M -76.51397 -76.51397 L 76.51397 -76.51397 L 76.51397 76.51397 L -76.51397 76.51397 z" stroke-linecap="round" />
</g>
<g transform="matrix(1 0 0 1 365.05 276.03)" style="" id="-4vokgQIlffdgeq8QKvG-"  >
		<text xml:space="preserve" font-family="Open Sans" font-size="14" font-style="normal" font-weight="600" letter-spacing="0.028" line-height="1" style="stroke: none; stroke-width: 1; stroke-dasharray: none; stroke-linecap: butt; stroke-dashoffset: 0; stroke-linejoin: miter; stroke-miterlimit: 4; fill: rgb(0,0,0); fill-rule: nonzero; opacity: 1; white-space: pre;" ><tspan x="-37.4" y="0.81" >f</tspan><tspan x="-32.31" y="0.81" >i</tspan><tspan x="-28.38" y="0.81" >x</tspan><tspan x="-20.64" y="0.81" >e</tspan><tspan x="-12.55" y="0.81" >d</tspan><tspan x="-3.8" y="0.81" style="white-space: pre; "> </tspan><tspan x="-0.14" y="0.81" >p</tspan><tspan x="8.61" y="0.81" >o</tspan><tspan x="17.18" y="0.81" >i</tspan><tspan x="21.11" y="0.81" >n</tspan><tspan x="30.03" y="0.81" >t</tspan></text>
</g>
<g transform="matrix(0.83 0 0 0.83 198.29 233.98)" id="nWwSdpXPHURNCRMkz_kUg"  >
<path style="stroke: rgb(0,0,0); stroke-width: 1; stroke-dasharray: none; stroke-linecap: butt; stroke-dashoffset: 0; stroke-linejoin: miter; stroke-miterlimit: 4; fill: rgb(255,255,255); fill-opacity: 0; fill-rule: nonzero; opacity: 1;" vector-effect="non-scaling-stroke"  transform=" translate(0, 0)" d="M 70.08101 -32.17948 L -70.081 32.179469999999995" stroke-linecap="round" />
</g>
<g transform="matrix(0.83 0 0 0.83 314.82 233.15)" id="LKrzcUnIyqEbYor2Qh9nR"  >
<path style="stroke: rgb(0,0,0); stroke-width: 1; stroke-dasharray: none; stroke-linecap: butt; stroke-dashoffset: 0; stroke-linejoin: miter; stroke-miterlimit: 4; fill: rgb(255,255,255); fill-opacity: 0; fill-rule: nonzero; opacity: 1;" vector-effect="non-scaling-stroke"  transform=" translate(0, 0)" d="M 70.08101 31.17948 L -70.081 -31.17947" stroke-linecap="round" />
</g>
<g transform="matrix(0.83 0 0 0.13 273.64 348.18)" id="jdlAe10keVlzxa9N64Z9M"  >
<path style="stroke: rgb(53,253,166); stroke-width: 0; stroke-dasharray: none; stroke-linecap: butt; stroke-dashoffset: 0; stroke-linejoin: miter; stroke-miterlimit: 4; fill: rgb(89,174,231); fill-rule: nonzero; opacity: 1;" vector-effect="non-scaling-stroke"  transform=" translate(0, 0)" d="M -76.51397 -76.51397 L 76.51397 -76.51397 L 76.51397 76.51397 L -76.51397 76.51397 z" stroke-linecap="round" />
</g>
<g transform="matrix(0.83 0 0 0.13 460.75 347.1)" id="9bWLEAZom85PgVzw5eqM2"  >
<path style="stroke: rgb(53,253,166); stroke-width: 0; stroke-dasharray: none; stroke-linecap: butt; stroke-dashoffset: 0; stroke-linejoin: miter; stroke-miterlimit: 4; fill: rgb(89,174,231); fill-rule: nonzero; opacity: 1;" vector-effect="non-scaling-stroke"  transform=" translate(0, 0)" d="M -76.51397 -76.51397 L 76.51397 -76.51397 L 76.51397 76.51397 L -76.51397 76.51397 z" stroke-linecap="round" />
</g>
<g transform="matrix(1 0 0 1 284.43 352.23)" style="" id="W5gZGKkdh2fwMlz5K21fX"  >
		<text xml:space="preserve" font-family="Open Sans" font-size="14" font-style="normal" font-weight="600" letter-spacing="0.028" line-height="1" style="stroke: none; stroke-width: 1; stroke-dasharray: none; stroke-linecap: butt; stroke-dashoffset: 0; stroke-linejoin: miter; stroke-miterlimit: 4; fill: rgb(0,0,0); fill-rule: nonzero; opacity: 1; white-space: pre;" ><tspan x="-37.41" y="0.81" >b</tspan><tspan x="-28.66" y="0.81" >i</tspan><tspan x="-24.73" y="0.81" >n</tspan><tspan x="-15.81" y="0.81" >a</tspan><tspan x="-7.66" y="0.81" >r</tspan><tspan x="-1.59" y="0.81" >y</tspan></text>
</g>
<g transform="matrix(1 0 0 1 464.87 352.23)" style="" id="Q-D9cQyzaLGJFms350xbN"  >
		<text xml:space="preserve" font-family="Open Sans" font-size="14" font-style="normal" font-weight="600" letter-spacing="0.028" line-height="1" style="stroke: none; stroke-width: 1; stroke-dasharray: none; stroke-linecap: butt; stroke-dashoffset: 0; stroke-linejoin: miter; stroke-miterlimit: 4; fill: rgb(0,0,0); fill-rule: nonzero; opacity: 1; white-space: pre;" ><tspan x="-26.59" y="0.81" >d</tspan><tspan x="-17.85" y="0.81" >e</tspan><tspan x="-9.76" y="0.81" >c</tspan><tspan x="-2.78" y="0.81" >i</tspan><tspan x="1.16" y="0.81" >m</tspan><tspan x="14.54" y="0.81" >a</tspan><tspan x="22.69" y="0.81" >l</tspan></text>
</g>
<g transform="matrix(0.83 0 0 0.83 303.3 309.66)" id="Cfgo40Go34rI-5OdxtCRm"  >
<path style="stroke: rgb(0,0,0); stroke-width: 1; stroke-dasharray: none; stroke-linecap: butt; stroke-dashoffset: 0; stroke-linejoin: miter; stroke-miterlimit: 4; fill: rgb(255,255,255); fill-opacity: 0; fill-rule: nonzero; opacity: 1;" vector-effect="non-scaling-stroke"  transform=" translate(0, 0)" d="M 70.08101 -32.17948 L -70.081 32.179469999999995" stroke-linecap="round" />
</g>
<g transform="matrix(0.83 0 0 0.83 419.83 308.83)" id="IBHCo3VPRJI0g5XVfTbum"  >
<path style="stroke: rgb(0,0,0); stroke-width: 1; stroke-dasharray: none; stroke-linecap: butt; stroke-dashoffset: 0; stroke-linejoin: miter; stroke-miterlimit: 4; fill: rgb(255,255,255); fill-opacity: 0; fill-rule: nonzero; opacity: 1;" vector-effect="non-scaling-stroke"  transform=" translate(0, 0)" d="M 70.08101 31.17948 L -70.081 -31.17947" stroke-linecap="round" />
</g>
<g transform="matrix(0.83 0 0 0.13 176.15 423.86)" id="-6TCDsdWBzM2UTdF2b-GD"  >
<path style="stroke: rgb(53,253,166); stroke-width: 0; stroke-dasharray: none; stroke-linecap: butt; stroke-dashoffset: 0; stroke-linejoin: miter; stroke-miterlimit: 4; fill: rgb(89,174,231); fill-rule: nonzero; opacity: 1;" vector-effect="non-scaling-stroke"  transform=" translate(0, 0)" d="M -76.51397 -76.51397 L 76.51397 -76.51397 L 76.51397 76.51397 L -76.51397 76.51397 z" stroke-linecap="round" />
</g>
<g transform="matrix(1 0 0 1 178.71 425.91)" style="" id="7VkREWTU71OLSAcI7OmlV"  >
		<text xml:space="preserve" font-family="Open Sans" font-size="14" font-style="normal" font-weight="600" letter-spacing="0.028" line-height="1" style="stroke: none; stroke-width: 1; stroke-dasharray: none; stroke-linecap: butt; stroke-dashoffset: 0; stroke-linejoin: miter; stroke-miterlimit: 4; fill: rgb(0,0,0); fill-rule: nonzero; opacity: 1; white-space: pre;" ><tspan x="-26.59" y="0.81" >s</tspan><tspan x="-19.75" y="0.81" >i</tspan><tspan x="-15.82" y="0.81" >g</tspan><tspan x="-8.03" y="0.81" >n</tspan><tspan x="0.89" y="0.81" >e</tspan><tspan x="8.98" y="0.81" >d</tspan></text>
</g>
<g transform="matrix(0.83 0 0 0.13 363.26 422.78)" id="qhgPLn83znp5CH5IRm7xQ"  >
<path style="stroke: rgb(53,253,166); stroke-width: 0; stroke-dasharray: none; stroke-linecap: butt; stroke-dashoffset: 0; stroke-linejoin: miter; stroke-miterlimit: 4; fill: rgb(89,174,231); fill-rule: nonzero; opacity: 1;" vector-effect="non-scaling-stroke"  transform=" translate(0, 0)" d="M -76.51397 -76.51397 L 76.51397 -76.51397 L 76.51397 76.51397 L -76.51397 76.51397 z" stroke-linecap="round" />
</g>
<g transform="matrix(1 0 0 1 373.49 425.91)" style="" id="oJxzgGK_v3fu1pzr_oNLX"  >
		<text xml:space="preserve" font-family="Open Sans" font-size="14" font-style="normal" font-weight="600" letter-spacing="0.028" line-height="1" style="stroke: none; stroke-width: 1; stroke-dasharray: none; stroke-linecap: butt; stroke-dashoffset: 0; stroke-linejoin: miter; stroke-miterlimit: 4; fill: rgb(0,0,0); fill-rule: nonzero; opacity: 1; white-space: pre;" ><tspan x="-37.41" y="0.81" >u</tspan><tspan x="-28.48" y="0.81" >n</tspan><tspan x="-19.56" y="0.81" >s</tspan><tspan x="-12.72" y="0.81" >i</tspan><tspan x="-8.79" y="0.81" >g</tspan><tspan x="-1" y="0.81" >n</tspan><tspan x="7.92" y="0.81" >e</tspan><tspan x="16.02" y="0.81" >d</tspan></text>
</g>
<g transform="matrix(0.83 0 0 0.83 205.81 385.34)" id="Xw0J13alDxoRzA6kL-KRk"  >
<path style="stroke: rgb(0,0,0); stroke-width: 1; stroke-dasharray: none; stroke-linecap: butt; stroke-dashoffset: 0; stroke-linejoin: miter; stroke-miterlimit: 4; fill: rgb(255,255,255); fill-opacity: 0; fill-rule: nonzero; opacity: 1;" vector-effect="non-scaling-stroke"  transform=" translate(0, 0)" d="M 70.08101 -32.17948 L -70.081 32.179469999999995" stroke-linecap="round" />
</g>
<g transform="matrix(0.83 0 0 0.83 322.34 384.51)" id="ve6CinnDNB7bMpc-G9U9r"  >
<path style="stroke: rgb(0,0,0); stroke-width: 1; stroke-dasharray: none; stroke-linecap: butt; stroke-dashoffset: 0; stroke-linejoin: miter; stroke-miterlimit: 4; fill: rgb(255,255,255); fill-opacity: 0; fill-rule: nonzero; opacity: 1;" vector-effect="non-scaling-stroke"  transform=" translate(0, 0)" d="M 70.08101 31.17948 L -70.081 -31.17947" stroke-linecap="round" />
</g>
</svg>