<?xml version="1.0" encoding="UTF-8" standalone="no" ?>
<!DOCTYPE svg PUBLIC "-//W3C//DTD SVG 1.1//EN" "http://www.w3.org/Graphics/SVG/1.1/DTD/svg11.dtd">
<svg xmlns="http://www.w3.org/2000/svg" xmlns:xlink="http://www.w3.org/1999/xlink" version="1.1" width="371" height="371" viewBox="0 0 371 371" xml:space="preserve">
<desc>Created with Fabric.js 5.3.0</desc>
<defs>
</defs>
<g transform="matrix(0.175 0 0 0.175 186.7884153034 14.7705142947)" id="HJf0cH79HvM5_FMK5j7CB"  >
<path style="stroke: rgb(0,0,0); stroke-width: 1; stroke-dasharray: none; stroke-linecap: butt; stroke-dashoffset: 0; stroke-linejoin: miter; stroke-miterlimit: 4; fill: none; fill-rule: nonzero; opacity: 1;" vector-effect="non-scaling-stroke"  transform=" translate(0, 0)" d="M 0 -44.32133 C 24.46537 -44.32133 44.32133 -24.465370000000004 44.32133 0 C 44.32133 24.46537 24.465370000000004 44.32133 0 44.32133 C -24.46537 44.32133 -44.32133 24.465370000000004 -44.32133 0 C -44.32133 -24.46537 -24.465370000000004 -44.32133 0 -44.32133 z" stroke-linecap="round" />
</g>
<g transform="matrix(0.175 0 0 0.175 111.7884153034 354.7705142946)" id="stdM8G8VCb90df1wKxee5"  >
<path style="stroke: rgb(0,0,0); stroke-width: 1; stroke-dasharray: none; stroke-linecap: butt; stroke-dashoffset: 0; stroke-linejoin: miter; stroke-miterlimit: 4; fill: none; fill-rule: nonzero; opacity: 1;" vector-effect="non-scaling-stroke"  transform=" translate(0, 0)" d="M 0 -44.32133 C 24.46537 -44.32133 44.32133 -24.465370000000004 44.32133 0 C 44.32133 24.46537 24.465370000000004 44.32133 0 44.32133 C -24.46537 44.32133 -44.32133 24.465370000000004 -44.32133 0 C -44.32133 -24.46537 -24.465370000000004 -44.32133 0 -44.32133 z" stroke-linecap="round" />
</g>
<g transform="matrix(0.175 0 0 0.175 261.7884153034 354.7705142946)" id="T5IxYiOCEdJi8PRrV6JEY"  >
<path style="stroke: rgb(0,0,0); stroke-width: 1; stroke-dasharray: none; stroke-linecap: butt; stroke-dashoffset: 0; stroke-linejoin: miter; stroke-miterlimit: 4; fill: none; fill-rule: nonzero; opacity: 1;" vector-effect="non-scaling-stroke"  transform=" translate(0, 0)" d="M 0 -44.32133 C 24.46537 -44.32133 44.32133 -24.465370000000004 44.32133 0 C 44.32133 24.46537 24.465370000000004 44.32133 0 44.32133 C -24.46537 44.32133 -44.32133 24.465370000000004 -44.32133 0 C -44.32133 -24.46537 -24.465370000000004 -44.32133 0 -44.32133 z" stroke-linecap="round" />
</g>
<g transform="matrix(1 0 0 1 356.7884153034 222.534662488)" id="UInXgUqsDyTGR5vogUeel"  >
<path style="stroke: rgb(0,0,0); stroke-width: 1; stroke-dasharray: none; stroke-linecap: butt; stroke-dashoffset: 0; stroke-linejoin: miter; stroke-miterlimit: 4; fill: none; fill-rule: nonzero; opacity: 1;" vector-effect="non-scaling-stroke"  transform=" translate(-7.75623, -7.75623)" d="M 0 7.75623 C 0 12.03767 3.47479 15.51246 7.75623 15.51246 C 12.03767 15.51246 15.51246 12.03767 15.51246 7.75623 C 15.51246 3.4747900000000005 12.03767 0 7.75623 0 C 3.4747900000000005 0 0 3.47479 0 7.75623 z" stroke-linecap="round" />
</g>
<g transform="matrix(1 0 0 1 16.7884153034 222.534662488)" id="9foXBdLQwkOCfj_j6TjZh"  >
<path style="stroke: rgb(0,0,0); stroke-width: 1; stroke-dasharray: none; stroke-linecap: butt; stroke-dashoffset: 0; stroke-linejoin: miter; stroke-miterlimit: 4; fill: none; fill-rule: nonzero; opacity: 1;" vector-effect="non-scaling-stroke"  transform=" translate(-7.75623, -7.75623)" d="M 7.75623 0 C 12.03767 0 15.51246 3.47479 15.51246 7.75623 C 15.51246 12.03767 12.03767 15.51246 7.75623 15.51246 C 3.4747900000000005 15.51246 0 12.03767 0 7.75623 C 0 3.4747900000000005 3.47479 0 7.75623 0 z" stroke-linecap="round" />
</g>
<g transform="matrix(1 0 0 1 311.7884153034 103.6525870163)" id="n32Irm7wEc1ZMFikYq0L-"  >
<path style="stroke: rgb(0,0,0); stroke-width: 1; stroke-dasharray: none; stroke-linecap: butt; stroke-dashoffset: 0; stroke-linejoin: miter; stroke-miterlimit: 4; fill: none; fill-rule: nonzero; opacity: 1;" vector-effect="non-scaling-stroke"  transform=" translate(0, 0)" d="M -7.75623 0 C -7.75623 4.28144 -4.28144 7.75623 0 7.75623 C 4.28144 7.75623 7.75623 4.28144 7.75623 0 C 7.75623 -4.28144 4.28144 -7.75623 0 -7.75623 C -4.28144 -7.75623 -7.75623 -4.28144 -7.75623 0 z" stroke-linecap="round" />
</g>
<g transform="matrix(1 0 0 1 61.7884153034 103.6525870163)" id="ccZSPy7uXQ-UAD7OY0Rw_"  >
<path style="stroke: rgb(0,0,0); stroke-width: 1; stroke-dasharray: none; stroke-linecap: butt; stroke-dashoffset: 0; stroke-linejoin: miter; stroke-miterlimit: 4; fill: none; fill-rule: nonzero; opacity: 1;" vector-effect="non-scaling-stroke"  transform=" translate(-7.75623, -7.75623)" d="M 7.75623 0 C 12.03767 0 15.51246 3.47479 15.51246 7.75623 C 15.51246 12.03767 12.03767 15.51246 7.75623 15.51246 C 3.4747900000000005 15.51246 0 12.03767 0 7.75623 C 0 3.4747900000000005 3.47479 0 7.75623 0 z" stroke-linecap="round" />
</g>
<g transform="matrix(1 0 0 1 186.7884153034 184.7705142631)" id="oMqs5jhk-wcJD9BGLcq6D"  >
<path style="stroke: rgb(0,0,0); stroke-width: 1; stroke-dasharray: none; stroke-linecap: butt; stroke-dashoffset: 0; stroke-linejoin: miter; stroke-miterlimit: 4; fill: rgb(255,255,255); fill-opacity: 0; fill-rule: nonzero; opacity: 1;" vector-effect="non-scaling-stroke"  transform=" translate(0, 0)" d="M 0 -161.74377 L 116.74377 -81.11793000000002 L 161.74376999999998 37.76414999999999 L 74.99999999999999 161.74376999999998 L -75.00000000000001 161.74376999999998 L -161.74377 37.76414999999999 L -116.74377000000001 -81.11793000000002 z" stroke-linecap="round" />
</g>
</svg>