<?xml version="1.0" encoding="UTF-8" standalone="no" ?>
<!DOCTYPE svg PUBLIC "-//W3C//DTD SVG 1.1//EN" "http://www.w3.org/Graphics/SVG/1.1/DTD/svg11.dtd">
<svg xmlns="http://www.w3.org/2000/svg" xmlns:xlink="http://www.w3.org/1999/xlink" version="1.1" width="573" height="417" viewBox="0 0 573 417" xml:space="preserve">
<desc>Created with Fabric.js 5.3.0</desc>
<defs>
</defs>
<g transform="matrix(0.15 0 0 0.15 11.9335180055 180.9750692521)" id="gtTKHbS48vJO-ddM0x5FA"  >
<path style="stroke: rgb(219,190,229); stroke-width: 0; stroke-dasharray: none; stroke-linecap: butt; stroke-dashoffset: 0; stroke-linejoin: miter; stroke-miterlimit: 4; fill: rgb(0,0,0); fill-rule: nonzero; opacity: 1;" vector-effect="non-scaling-stroke"  transform=" translate(0, 0)" d="M 0 -44.32133 C 24.46537 -44.32133 44.32133 -24.465370000000004 44.32133 0 C 44.32133 24.46537 24.465370000000004 44.32133 0 44.32133 C -24.46537 44.32133 -44.32133 24.465370000000004 -44.32133 0 C -44.32133 -24.46537 -24.465370000000004 -44.32133 0 -44.32133 z" stroke-linecap="round" />
</g>
<g transform="matrix(0.15 0 0 0.15 171.9335180055 180.9750692521)" id="dgFUo_Y6wVZB4cDw_2BDs"  >
<path style="stroke: rgb(219,190,229); stroke-width: 0; stroke-dasharray: none; stroke-linecap: butt; stroke-dashoffset: 0; stroke-linejoin: miter; stroke-miterlimit: 4; fill: rgb(0,0,0); fill-rule: nonzero; opacity: 1;" vector-effect="non-scaling-stroke"  transform=" translate(0, 0)" d="M 0 -44.32133 C 24.46537 -44.32133 44.32133 -24.465370000000004 44.32133 0 C 44.32133 24.46537 24.465370000000004 44.32133 0 44.32133 C -24.46537 44.32133 -44.32133 24.465370000000004 -44.32133 0 C -44.32133 -24.46537 -24.465370000000004 -44.32133 0 -44.32133 z" stroke-linecap="round" />
</g>
<g transform="matrix(0.15 0 0 0.15 251.9335180055 80.9750692521)" id="_xliCTp_eD8Uy63iBRn54"  >
<path style="stroke: rgb(219,190,229); stroke-width: 0; stroke-dasharray: none; stroke-linecap: butt; stroke-dashoffset: 0; stroke-linejoin: miter; stroke-miterlimit: 4; fill: rgb(0,0,0); fill-rule: nonzero; opacity: 1;" vector-effect="non-scaling-stroke"  transform=" translate(0, 0)" d="M 0 -44.32133 C 24.46537 -44.32133 44.32133 -24.465370000000004 44.32133 0 C 44.32133 24.46537 24.465370000000004 44.32133 0 44.32133 C -24.46537 44.32133 -44.32133 24.465370000000004 -44.32133 0 C -44.32133 -24.46537 -24.465370000000004 -44.32133 0 -44.32133 z" stroke-linecap="round" />
</g>
<g transform="matrix(0.15 0 0 0.15 341.9335180055 10.9750692521)" id="VnWqXISEINAU9ms2V7OEG"  >
<path style="stroke: rgb(219,190,229); stroke-width: 0; stroke-dasharray: none; stroke-linecap: butt; stroke-dashoffset: 0; stroke-linejoin: miter; stroke-miterlimit: 4; fill: rgb(0,0,0); fill-rule: nonzero; opacity: 1;" vector-effect="non-scaling-stroke"  transform=" translate(0, 0)" d="M 0 -44.32133 C 24.46537 -44.32133 44.32133 -24.465370000000004 44.32133 0 C 44.32133 24.46537 24.465370000000004 44.32133 0 44.32133 C -24.46537 44.32133 -44.32133 24.465370000000004 -44.32133 0 C -44.32133 -24.46537 -24.465370000000004 -44.32133 0 -44.32133 z" stroke-linecap="round" />
</g>
<g transform="matrix(0.15 0 0 0.15 421.9335180055 80.9750692521)" id="rQ_1TnM77XQFEIM7w7F3W"  >
<path style="stroke: rgb(219,190,229); stroke-width: 0; stroke-dasharray: none; stroke-linecap: butt; stroke-dashoffset: 0; stroke-linejoin: miter; stroke-miterlimit: 4; fill: rgb(0,0,0); fill-rule: nonzero; opacity: 1;" vector-effect="non-scaling-stroke"  transform=" translate(0, 0)" d="M 0 -44.32133 C 24.46537 -44.32133 44.32133 -24.465370000000004 44.32133 0 C 44.32133 24.46537 24.465370000000004 44.32133 0 44.32133 C -24.46537 44.32133 -44.32133 24.465370000000004 -44.32133 0 C -44.32133 -24.46537 -24.465370000000004 -44.32133 0 -44.32133 z" stroke-linecap="round" />
</g>
<g transform="matrix(0.15 0 0 0.15 471.9335180055 30.9750692521)" id="dde5NNb0e8W_5XjiFXchX"  >
<path style="stroke: rgb(219,190,229); stroke-width: 0; stroke-dasharray: none; stroke-linecap: butt; stroke-dashoffset: 0; stroke-linejoin: miter; stroke-miterlimit: 4; fill: rgb(0,0,0); fill-rule: nonzero; opacity: 1;" vector-effect="non-scaling-stroke"  transform=" translate(0, 0)" d="M 0 -44.32133 C 24.46537 -44.32133 44.32133 -24.465370000000004 44.32133 0 C 44.32133 24.46537 24.465370000000004 44.32133 0 44.32133 C -24.46537 44.32133 -44.32133 24.465370000000004 -44.32133 0 C -44.32133 -24.46537 -24.465370000000004 -44.32133 0 -44.32133 z" stroke-linecap="round" />
</g>
<g transform="matrix(0.15 0 0 0.15 471.9335180055 130.9750692521)" id="nY6oq0vEGZHyOioYhyK5u"  >
<path style="stroke: rgb(219,190,229); stroke-width: 0; stroke-dasharray: none; stroke-linecap: butt; stroke-dashoffset: 0; stroke-linejoin: miter; stroke-miterlimit: 4; fill: rgb(0,0,0); fill-rule: nonzero; opacity: 1;" vector-effect="non-scaling-stroke"  transform=" translate(0, 0)" d="M 0 -44.32133 C 24.46537 -44.32133 44.32133 -24.465370000000004 44.32133 0 C 44.32133 24.46537 24.465370000000004 44.32133 0 44.32133 C -24.46537 44.32133 -44.32133 24.465370000000004 -44.32133 0 C -44.32133 -24.46537 -24.465370000000004 -44.32133 0 -44.32133 z" stroke-linecap="round" />
</g>
<g transform="matrix(0.15 0 0 0.15 341.9335180055 120.9750692521)" id="6qJoQHkM7DzAWWM0UBEKr"  >
<path style="stroke: rgb(219,190,229); stroke-width: 0; stroke-dasharray: none; stroke-linecap: butt; stroke-dashoffset: 0; stroke-linejoin: miter; stroke-miterlimit: 4; fill: rgb(0,0,0); fill-rule: nonzero; opacity: 1;" vector-effect="non-scaling-stroke"  transform=" translate(0, 0)" d="M 0 -44.32133 C 24.46537 -44.32133 44.32133 -24.465370000000004 44.32133 0 C 44.32133 24.46537 24.465370000000004 44.32133 0 44.32133 C -24.46537 44.32133 -44.32133 24.465370000000004 -44.32133 0 C -44.32133 -24.46537 -24.465370000000004 -44.32133 0 -44.32133 z" stroke-linecap="round" />
</g>
<g transform="matrix(0.15 0 0 0.15 251.9335180055 320.9750692521)" id="UeJBxLlkY8ig1jyPVq8Vu"  >
<path style="stroke: rgb(219,190,229); stroke-width: 0; stroke-dasharray: none; stroke-linecap: butt; stroke-dashoffset: 0; stroke-linejoin: miter; stroke-miterlimit: 4; fill: rgb(0,0,0); fill-rule: nonzero; opacity: 1;" vector-effect="non-scaling-stroke"  transform=" translate(0, 0)" d="M 0 -44.32133 C 24.46537 -44.32133 44.32133 -24.465370000000004 44.32133 0 C 44.32133 24.46537 24.465370000000004 44.32133 0 44.32133 C -24.46537 44.32133 -44.32133 24.465370000000004 -44.32133 0 C -44.32133 -24.46537 -24.465370000000004 -44.32133 0 -44.32133 z" stroke-linecap="round" />
</g>
<g transform="matrix(0.15 0 0 0.15 391.9335180055 320.9750692521)" id="kcQ_VVDNaeJe3uW85pRLX"  >
<path style="stroke: rgb(219,190,229); stroke-width: 0; stroke-dasharray: none; stroke-linecap: butt; stroke-dashoffset: 0; stroke-linejoin: miter; stroke-miterlimit: 4; fill: rgb(0,0,0); fill-rule: nonzero; opacity: 1;" vector-effect="non-scaling-stroke"  transform=" translate(0, 0)" d="M 0 -44.32133 C 24.46537 -44.32133 44.32133 -24.465370000000004 44.32133 0 C 44.32133 24.46537 24.465370000000004 44.32133 0 44.32133 C -24.46537 44.32133 -44.32133 24.465370000000004 -44.32133 0 C -44.32133 -24.46537 -24.465370000000004 -44.32133 0 -44.32133 z" stroke-linecap="round" />
</g>
<g transform="matrix(0.15 0 0 0.15 451.9335180055 240.9750692521)" id="UvfEUP7XxynqW6UKw5nk5"  >
<path style="stroke: rgb(219,190,229); stroke-width: 0; stroke-dasharray: none; stroke-linecap: butt; stroke-dashoffset: 0; stroke-linejoin: miter; stroke-miterlimit: 4; fill: rgb(0,0,0); fill-rule: nonzero; opacity: 1;" vector-effect="non-scaling-stroke"  transform=" translate(0, 0)" d="M 0 -44.32133 C 24.46537 -44.32133 44.32133 -24.465370000000004 44.32133 0 C 44.32133 24.46537 24.465370000000004 44.32133 0 44.32133 C -24.46537 44.32133 -44.32133 24.465370000000004 -44.32133 0 C -44.32133 -24.46537 -24.465370000000004 -44.32133 0 -44.32133 z" stroke-linecap="round" />
</g>
<g transform="matrix(0.15 0 0 0.15 451.9335180055 400.9750692521)" id="X8lDM3n_bneKMKzJZuf9d"  >
<path style="stroke: rgb(219,190,229); stroke-width: 0; stroke-dasharray: none; stroke-linecap: butt; stroke-dashoffset: 0; stroke-linejoin: miter; stroke-miterlimit: 4; fill: rgb(0,0,0); fill-rule: nonzero; opacity: 1;" vector-effect="non-scaling-stroke"  transform=" translate(0, 0)" d="M 0 -44.32133 C 24.46537 -44.32133 44.32133 -24.465370000000004 44.32133 0 C 44.32133 24.46537 24.465370000000004 44.32133 0 44.32133 C -24.46537 44.32133 -44.32133 24.465370000000004 -44.32133 0 C -44.32133 -24.46537 -24.465370000000004 -44.32133 0 -44.32133 z" stroke-linecap="round" />
</g>
<g transform="matrix(0.15 0 0 0.15 561.9335180055 400.9750692521)" id="PULSbQj2EmhpVZq4Xb43x"  >
<path style="stroke: rgb(219,190,229); stroke-width: 0; stroke-dasharray: none; stroke-linecap: butt; stroke-dashoffset: 0; stroke-linejoin: miter; stroke-miterlimit: 4; fill: rgb(0,0,0); fill-rule: nonzero; opacity: 1;" vector-effect="non-scaling-stroke"  transform=" translate(0, 0)" d="M 0 -44.32133 C 24.46537 -44.32133 44.32133 -24.465370000000004 44.32133 0 C 44.32133 24.46537 24.465370000000004 44.32133 0 44.32133 C -24.46537 44.32133 -44.32133 24.465370000000004 -44.32133 0 C -44.32133 -24.46537 -24.465370000000004 -44.32133 0 -44.32133 z" stroke-linecap="round" />
</g>
<g transform="matrix(1 0 0 1 176.9335180055 95.9750692521)" id="NiCyy61495-fhYKF3TVTY"  >
<path style="stroke: rgb(0,0,0); stroke-width: 1; stroke-dasharray: none; stroke-linecap: butt; stroke-dashoffset: 0; stroke-linejoin: miter; stroke-miterlimit: 4; fill: rgb(255,255,255); fill-opacity: 0; fill-rule: nonzero; opacity: 1;" vector-effect="non-scaling-stroke"  transform=" translate(0, 0)" d="M -165 85 L -5 85 L 75 -15 L 165 -85" stroke-linecap="round" />
</g>
<g transform="matrix(1 0 0 1 251.9335180055 80.9750692521)" id="y5FKsLFcENtU3mnELfh7U"  >
<path style="stroke: rgb(0,0,0); stroke-width: 1; stroke-dasharray: none; stroke-linecap: butt; stroke-dashoffset: 0; stroke-linejoin: miter; stroke-miterlimit: 4; fill: rgb(255,255,255); fill-opacity: 0; fill-rule: nonzero; opacity: 1;" vector-effect="non-scaling-stroke"  transform=" translate(0, 0)" d="M 0 0" stroke-linecap="round" />
</g>
<g transform="matrix(1 0 0 1 362.1835180055 56.2250692521)" id="crr_TgKCIplaP20R97Y_9"  >
<path style="stroke: rgb(0,0,0); stroke-width: 1; stroke-dasharray: none; stroke-linecap: butt; stroke-dashoffset: 0; stroke-linejoin: miter; stroke-miterlimit: 4; fill: rgb(255,255,255); fill-opacity: 0; fill-rule: nonzero; opacity: 1;" vector-effect="non-scaling-stroke"  transform=" translate(0, 0)" d="M -109.75 25.25 L 59.75 25.25 L 109.75 -25.25" stroke-linecap="round" />
</g>
<g transform="matrix(1 0 0 1 447.1835180055 106.4750692521)" id="EFiH6nLLbovn4ZlFYRBgD"  >
<path style="stroke: rgb(0,0,0); stroke-width: 1; stroke-dasharray: none; stroke-linecap: butt; stroke-dashoffset: 0; stroke-linejoin: miter; stroke-miterlimit: 4; fill: rgb(255,255,255); fill-opacity: 0; fill-rule: nonzero; opacity: 1;" vector-effect="non-scaling-stroke"  transform=" translate(0, 0)" d="M -25.25 -24.5 L 25.25 24.5" stroke-linecap="round" />
</g>
<g transform="matrix(1 0 0 1 297.4335180055 100.9750692521)" id="_k57orlCo11xS7su20wde"  >
<path style="stroke: rgb(0,0,0); stroke-width: 1; stroke-dasharray: none; stroke-linecap: butt; stroke-dashoffset: 0; stroke-linejoin: miter; stroke-miterlimit: 4; fill: rgb(255,255,255); fill-opacity: 0; fill-rule: nonzero; opacity: 1;" vector-effect="non-scaling-stroke"  transform=" translate(0, 0)" d="M -45 -20 L 45 20" stroke-linecap="round" />
</g>
<g transform="matrix(1 0 0 1 311.9335180055 250.9750692521)" id="1DboLLwZBr5OjyJHrSgyY"  >
<path style="stroke: rgb(0,0,0); stroke-width: 1; stroke-dasharray: none; stroke-linecap: butt; stroke-dashoffset: 0; stroke-linejoin: miter; stroke-miterlimit: 4; fill: rgb(255,255,255); fill-opacity: 0; fill-rule: nonzero; opacity: 1;" vector-effect="non-scaling-stroke"  transform=" translate(0, 0)" d="M -140 -70 L -59.5 70 L 80 70 L 140 -10" stroke-linecap="round" />
</g>
<g transform="matrix(1 0 0 1 476.9335180055 360.9750692521)" id="Uug79qGZjVquLEubTkrcX"  >
<path style="stroke: rgb(0,0,0); stroke-width: 1; stroke-dasharray: none; stroke-linecap: butt; stroke-dashoffset: 0; stroke-linejoin: miter; stroke-miterlimit: 4; fill: rgb(255,255,255); fill-opacity: 0; fill-rule: nonzero; opacity: 1;" vector-effect="non-scaling-stroke"  transform=" translate(0, 0)" d="M -85 -40 L -24.5 40 L 85 40" stroke-linecap="round" />
</g>
</svg>