<?xml version="1.0" encoding="UTF-8" standalone="no" ?>
<!DOCTYPE svg PUBLIC "-//W3C//DTD SVG 1.1//EN" "http://www.w3.org/Graphics/SVG/1.1/DTD/svg11.dtd">
<svg xmlns="http://www.w3.org/2000/svg" xmlns:xlink="http://www.w3.org/1999/xlink" version="1.1" width="473" height="398" viewBox="0 0 473 398" xml:space="preserve">
<desc>Created with Fabric.js 4.6.0</desc>
<defs>
</defs>
<g transform="matrix(1.63 0 0 1.2 236.1 176.42)" id="a6mxFYYg1Y7i37djopTj-"  >
<path style="stroke: rgb(80,33,242); stroke-width: 2; stroke-dasharray: none; stroke-linecap: butt; stroke-dashoffset: 0; stroke-linejoin: miter; stroke-miterlimit: 4; fill: rgb(183,49,14); fill-opacity: 0.19; fill-rule: nonzero; opacity: 1;" vector-effect="non-scaling-stroke"  transform=" translate(0, 0)" d="M -140.51397 -140.51397 L 140.51397 -140.51397 L 140.51397 140.51397 L -140.51397 140.51397 z" stroke-linecap="round" />
</g>
<g transform="matrix(1.28 0 0 0.93 236.1 176.42)" id="8wiBfhikEP_YuiV9iQRPI"  >
<path style="stroke: rgb(80,33,242); stroke-width: 2; stroke-dasharray: none; stroke-linecap: butt; stroke-dashoffset: 0; stroke-linejoin: miter; stroke-miterlimit: 4; fill: rgb(183,49,14); fill-opacity: 0.19; fill-rule: nonzero; opacity: 1;" vector-effect="non-scaling-stroke"  transform=" translate(0, 0)" d="M -140.51397 -140.51397 L 140.51397 -140.51397 L 140.51397 140.51397 L -140.51397 140.51397 z" stroke-linecap="round" />
</g>
<g transform="matrix(0.98 0 0 0.71 236.1 176.42)" id="RdQIQ0EFwNFrvKhIYx9Bk"  >
<path style="stroke: rgb(80,33,242); stroke-width: 2; stroke-dasharray: none; stroke-linecap: butt; stroke-dashoffset: 0; stroke-linejoin: miter; stroke-miterlimit: 4; fill: rgb(183,49,14); fill-opacity: 0.19; fill-rule: nonzero; opacity: 1;" vector-effect="non-scaling-stroke"  transform=" translate(0, 0)" d="M -140.51397 -140.51397 L 140.51397 -140.51397 L 140.51397 140.51397 L -140.51397 140.51397 z" stroke-linecap="round" />
</g>
<g transform="matrix(1 0 0 1 236.1 334.72)" style="" id="3S1CQ5fr4_zsiAAxap5jX"  >
		<text xml:space="preserve" font-family="Open Sans" font-size="23" font-style="normal" font-weight="700" letter-spacing="0.046" line-height="1" style="stroke: none; stroke-width: 1; stroke-dasharray: none; stroke-linecap: butt; stroke-dashoffset: 0; stroke-linejoin: miter; stroke-miterlimit: 4; fill: rgb(0,0,0); fill-rule: nonzero; opacity: 1; white-space: pre;" ><tspan x="-26.49" y="2.22" >U</tspan><tspan x="-9.06" y="2.22" >s</tspan><tspan x="2.42" y="2.22" >e</tspan><tspan x="16.05" y="2.22" >r</tspan></text>
</g>
<g transform="matrix(1 0 0 1 236.1 384.05)" style="" id="7qmEpoSRINGdgL8XVDXIQ"  >
		<text xml:space="preserve" font-family="Open Sans" font-size="23" font-style="normal" font-weight="700" letter-spacing="0.046" line-height="1" style="stroke: none; stroke-width: 1; stroke-dasharray: none; stroke-linecap: butt; stroke-dashoffset: 0; stroke-linejoin: miter; stroke-miterlimit: 4; fill: rgb(0,0,0); fill-rule: nonzero; opacity: 1; white-space: pre;" ><tspan x="-202.82" y="2.22" >R</tspan><tspan x="-187.59" y="2.22" >e</tspan><tspan x="-173.95" y="2.22" >l</tspan><tspan x="-166.89" y="2.22" >a</tspan><tspan x="-152.95" y="2.22" >t</tspan><tspan x="-142.92" y="2.22" >i</tspan><tspan x="-135.85" y="2.22" >o</tspan><tspan x="-121.57" y="2.22" >n</tspan><tspan x="-106.41" y="2.22" style="white-space: pre; "> </tspan><tspan x="-100.38" y="2.22" >o</tspan><tspan x="-86.1" y="2.22" >f</tspan><tspan x="-77.15" y="2.22" style="white-space: pre; "> </tspan><tspan x="-71.13" y="2.22" >H</tspan><tspan x="-53.48" y="2.22" >a</tspan><tspan x="-39.55" y="2.22" >r</tspan><tspan x="-29.06" y="2.22" >d</tspan><tspan x="-14.45" y="2.22" >w</tspan><tspan x="5.28" y="2.22" >a</tspan><tspan x="19.22" y="2.22" >r</tspan><tspan x="29.71" y="2.22" >e</tspan><tspan x="43.34" y="2.22" style="white-space: pre; "> </tspan><tspan x="49.36" y="2.22" >a</tspan><tspan x="63.3" y="2.22" >n</tspan><tspan x="78.46" y="2.22" >d</tspan><tspan x="93.06" y="2.22" style="white-space: pre; "> </tspan><tspan x="99.08" y="2.22" >S</tspan><tspan x="111.8" y="2.22" >o</tspan><tspan x="126.08" y="2.22" >f</tspan><tspan x="135.04" y="2.22" >t</tspan><tspan x="145.07" y="2.22" >w</tspan><tspan x="164.8" y="2.22" >a</tspan><tspan x="178.74" y="2.22" >r</tspan><tspan x="189.23" y="2.22" >e</tspan></text>
</g>
<g transform="matrix(1 0 0 1 236.1 297.29)" style="" id="0RklMyKUsf-HiH0paGHRF"  >
		<text xml:space="preserve" font-family="Open Sans" font-size="23" font-style="normal" font-weight="700" letter-spacing="0.046" line-height="1" style="stroke: none; stroke-width: 1; stroke-dasharray: none; stroke-linecap: butt; stroke-dashoffset: 0; stroke-linejoin: miter; stroke-miterlimit: 4; fill: rgb(0,0,0); fill-rule: nonzero; opacity: 1; white-space: pre;" ><tspan x="-51.25" y="2.22" >s</tspan><tspan x="-39.77" y="2.22" >o</tspan><tspan x="-25.48" y="2.22" >f</tspan><tspan x="-16.53" y="2.22" >t</tspan><tspan x="-6.5" y="2.22" >w</tspan><tspan x="13.23" y="2.22" >a</tspan><tspan x="27.17" y="2.22" >r</tspan><tspan x="37.66" y="2.22" >e</tspan></text>
</g>
<g transform="matrix(1 0 0 1 236.1 259.85)" style="" id="GmH-716DroRNSEgsN-9t0"  >
		<text xml:space="preserve" font-family="Open Sans" font-size="23" font-style="normal" font-weight="700" letter-spacing="0.046" line-height="1" style="stroke: none; stroke-width: 1; stroke-dasharray: none; stroke-linecap: butt; stroke-dashoffset: 0; stroke-linejoin: miter; stroke-miterlimit: 4; fill: rgb(0,0,0); fill-rule: nonzero; opacity: 1; white-space: pre;" ><tspan x="-55.97" y="2.22" >h</tspan><tspan x="-40.81" y="2.22" >a</tspan><tspan x="-26.87" y="2.22" >r</tspan><tspan x="-16.38" y="2.22" >d</tspan><tspan x="-1.78" y="2.22" >w</tspan><tspan x="17.95" y="2.22" >a</tspan><tspan x="31.89" y="2.22" >r</tspan><tspan x="42.38" y="2.22" >e</tspan></text>
</g>
</svg>