<?xml version="1.0" encoding="UTF-8" standalone="no" ?>
<!DOCTYPE svg PUBLIC "-//W3C//DTD SVG 1.1//EN" "http://www.w3.org/Graphics/SVG/1.1/DTD/svg11.dtd">
<svg xmlns="http://www.w3.org/2000/svg" xmlns:xlink="http://www.w3.org/1999/xlink" version="1.1" width="367" height="227" viewBox="0 0 367 227" xml:space="preserve">
<desc>Created with Fabric.js 3.6.3</desc>
<defs>
</defs>
<g transform="matrix(0.97 0 0 0.97 182.92 110.89)"  >
<path style="stroke: rgb(0,0,0); stroke-width: 5; stroke-dasharray: none; stroke-linecap: butt; stroke-dashoffset: 0; stroke-linejoin: miter; stroke-miterlimit: 4; fill: rgb(255,255,137); fill-rule: nonzero; opacity: 1;" vector-effect="non-scaling-stroke"  transform=" translate(-278.22, -214.5)" d="M 124 269.3333333333333 Q 155.99999999999997 329.3333333333333 189.33333333333331 269.3333333333333 Q 485.33333333333326 274.66666666666663 394.66666666666663 194.66666666666666 Q 365.33333333333337 115.99999999999999 308 114.66666666666666 Q 92 114.66666666666663 124 269.3333333333333" stroke-linecap="round" />
</g>
<g transform="matrix(1.26 0 0 1.26 109.39 48.76)" style=""  >
		<text xml:space="preserve" font-family="'Open Sans', sans-serif" font-size="18" font-style="normal" font-weight="normal" style="stroke: rgb(0,0,0); stroke-opacity: 0; stroke-width: 5; stroke-dasharray: 1 10; stroke-linecap: butt; stroke-dashoffset: 0; stroke-linejoin: miter; stroke-miterlimit: 4; fill: rgb(0,0,0); fill-rule: nonzero; opacity: 1; white-space: pre;" ><tspan x="-15.53" y="5.65" >1</tspan></text>
</g>
<g transform="matrix(3.59 0 0 2.2 183.51 113.86)"  >
<polygon style="stroke: rgb(0,0,0); stroke-width: 8; stroke-dasharray: none; stroke-linecap: butt; stroke-dashoffset: 0; stroke-linejoin: miter; stroke-miterlimit: 4; fill: none; fill-rule: nonzero; opacity: 1;" vector-effect="non-scaling-stroke"  points="-50,-50 -50,50 50,50 50,-50 " />
</g>
<g transform="matrix(1.26 0 0 1.26 179.86 50.01)" style=""  >
		<text xml:space="preserve" font-family="'Open Sans', sans-serif" font-size="18" font-style="normal" font-weight="normal" style="stroke: rgb(0,0,0); stroke-opacity: 0; stroke-width: 5; stroke-dasharray: 1 10; stroke-linecap: butt; stroke-dashoffset: 0; stroke-linejoin: miter; stroke-miterlimit: 4; fill: rgb(0,0,0); fill-rule: nonzero; opacity: 1; white-space: pre;" ><tspan x="-14.53" y="5.65" >2</tspan></text>
</g>
<g transform="matrix(1.26 0 0 1.26 257.87 52.53)" style=""  >
		<text xml:space="preserve" font-family="'Open Sans', sans-serif" font-size="18" font-style="normal" font-weight="normal" style="stroke: rgb(0,0,0); stroke-opacity: 0; stroke-width: 5; stroke-dasharray: 1 10; stroke-linecap: butt; stroke-dashoffset: 0; stroke-linejoin: miter; stroke-miterlimit: 4; fill: rgb(0,0,0); fill-rule: nonzero; opacity: 1; white-space: pre;" ><tspan x="-14.53" y="5.65" >3</tspan></text>
</g>
<g transform="matrix(1.26 0 0 1.26 300.63 121.74)" style=""  >
		<text xml:space="preserve" font-family="'Open Sans', sans-serif" font-size="18" font-style="normal" font-weight="normal" style="stroke: rgb(0,0,0); stroke-opacity: 0; stroke-width: 5; stroke-dasharray: 1 10; stroke-linecap: butt; stroke-dashoffset: 0; stroke-linejoin: miter; stroke-miterlimit: 4; fill: rgb(0,0,0); fill-rule: nonzero; opacity: 1; white-space: pre;" ><tspan x="-14.53" y="5.65" >4</tspan></text>
</g>
<g transform="matrix(1.26 0 0 1.26 213.8 124.25)" style=""  >
		<text xml:space="preserve" font-family="'Open Sans', sans-serif" font-size="18" font-style="normal" font-weight="normal" style="stroke: rgb(0,0,0); stroke-opacity: 0; stroke-width: 5; stroke-dasharray: 1 10; stroke-linecap: butt; stroke-dashoffset: 0; stroke-linejoin: miter; stroke-miterlimit: 4; fill: rgb(0,0,0); fill-rule: nonzero; opacity: 1; white-space: pre;" ><tspan x="-14.53" y="5.65" >5</tspan></text>
</g>
<g transform="matrix(1.26 0 0 1.26 142.09 121.74)" style=""  >
		<text xml:space="preserve" font-family="'Open Sans', sans-serif" font-size="18" font-style="normal" font-weight="normal" style="stroke: rgb(0,0,0); stroke-opacity: 0; stroke-width: 5; stroke-dasharray: 1 10; stroke-linecap: butt; stroke-dashoffset: 0; stroke-linejoin: miter; stroke-miterlimit: 4; fill: rgb(0,0,0); fill-rule: nonzero; opacity: 1; white-space: pre;" ><tspan x="-14.53" y="5.65" >6</tspan></text>
</g>
<g transform="matrix(1.26 0 0 1.26 72.34 126.83)" style=""  >
		<text xml:space="preserve" font-family="'Open Sans', sans-serif" font-size="18" font-style="normal" font-weight="normal" style="stroke: rgb(0,0,0); stroke-opacity: 0; stroke-width: 5; stroke-dasharray: 1 10; stroke-linecap: butt; stroke-dashoffset: 0; stroke-linejoin: miter; stroke-miterlimit: 4; fill: rgb(0,0,0); fill-rule: nonzero; opacity: 1; white-space: pre;" ><tspan x="-14.53" y="5.65" >7</tspan></text>
</g>
<g transform="matrix(1.26 0 0 1.26 324.88 157.67)" style=""  >
		<text xml:space="preserve" font-family="'Open Sans', sans-serif" font-size="18" font-style="normal" font-weight="normal" style="stroke: rgb(0,0,0); stroke-opacity: 0; stroke-width: 5; stroke-dasharray: 1 10; stroke-linecap: butt; stroke-dashoffset: 0; stroke-linejoin: miter; stroke-miterlimit: 4; fill: rgb(255,0,0); fill-rule: nonzero; opacity: 1; white-space: pre;" ><tspan x="-14.53" y="5.65" >B</tspan></text>
</g>
<g transform="matrix(1.26 0 0 1.26 306.18 55.91)" style=""  >
		<text xml:space="preserve" font-family="'Open Sans', sans-serif" font-size="18" font-style="normal" font-weight="normal" style="stroke: rgb(0,0,0); stroke-opacity: 0; stroke-width: 5; stroke-dasharray: 1 10; stroke-linecap: butt; stroke-dashoffset: 0; stroke-linejoin: miter; stroke-miterlimit: 4; fill: rgb(255,0,0); fill-rule: nonzero; opacity: 1; white-space: pre;" ><tspan x="-14.53" y="5.65" >A</tspan></text>
</g>
<g transform="matrix(1.77 0 0 1.54 167.66 50.31)"  >
<path style="stroke: rgb(0,0,0); stroke-width: 4; stroke-dasharray: none; stroke-linecap: butt; stroke-dashoffset: 0; stroke-linejoin: miter; stroke-miterlimit: 4; fill: none; fill-rule: nonzero; opacity: 1;" vector-effect="non-scaling-stroke"  transform=" translate(-62.2, -20.73)" d="m 20.013628 0 l 84.37401 0 l 0 0 c 11.053215 -1.04756605e-14 20.013626 9.282301 20.013626 20.7326 c 0 11.450296 -8.960411 20.7326 -20.013626 20.7326 l -84.37401 0 l 0 0 c -11.053222 0 -20.013628 -9.282303 -20.013628 -20.7326 c -5.2380687e-15 -11.450298 8.960406 -20.7326 20.013628 -20.7326 z" stroke-linecap="round" />
</g>
<g transform="matrix(1.98 0 0 1.06 210.29 119.54)"  >
<path style="stroke: rgb(0,0,0); stroke-width: 4; stroke-dasharray: none; stroke-linecap: butt; stroke-dashoffset: 0; stroke-linejoin: miter; stroke-miterlimit: 4; fill: none; fill-rule: nonzero; opacity: 1;" vector-effect="non-scaling-stroke"  transform=" translate(-62.2, -20.73)" d="m 20.013628 0 l 84.37401 0 l 0 0 c 11.053215 -1.04756605e-14 20.013626 9.282301 20.013626 20.7326 c 0 11.450296 -8.960411 20.7326 -20.013626 20.7326 l -84.37401 0 l 0 0 c -11.053222 0 -20.013628 -9.282303 -20.013628 -20.7326 c -5.2380687e-15 -11.450298 8.960406 -20.7326 20.013628 -20.7326 z" stroke-linecap="round" />
</g>
<g transform="matrix(1.26 0 0 1.26 69.75 172.04)" style=""  >
		<text xml:space="preserve" font-family="'Open Sans', sans-serif" font-size="18" font-style="normal" font-weight="normal" style="stroke: rgb(0,0,0); stroke-opacity: 0; stroke-width: 5; stroke-dasharray: 1 10; stroke-linecap: butt; stroke-dashoffset: 0; stroke-linejoin: miter; stroke-miterlimit: 4; fill: rgb(0,0,0); fill-rule: nonzero; opacity: 1; white-space: pre;" ><tspan x="-14.53" y="5.65" >8</tspan></text>
</g>
<g transform="matrix(1.26 0 0 1.26 100.75 203.04)" style=""  >
		<text xml:space="preserve" font-family="'Open Sans', sans-serif" font-size="18" font-style="normal" font-weight="normal" style="stroke: rgb(0,0,0); stroke-opacity: 0; stroke-width: 5; stroke-dasharray: 1 10; stroke-linecap: butt; stroke-dashoffset: 0; stroke-linejoin: miter; stroke-miterlimit: 4; fill: rgb(255,0,0); fill-rule: nonzero; opacity: 1; white-space: pre;" ><tspan x="-14.53" y="5.65" >C</tspan></text>
</g>
<g transform="matrix(0 -0.84 1.06 0 61.15 148.31)"  >
<path style="stroke: rgb(0,0,0); stroke-width: 5; stroke-dasharray: none; stroke-linecap: butt; stroke-dashoffset: 0; stroke-linejoin: miter; stroke-miterlimit: 4; fill: none; fill-rule: nonzero; opacity: 1;"  transform=" translate(-62.2, -20.73)" d="m 20.013628 0 l 84.37401 0 l 0 0 c 11.053215 -1.04756605e-14 20.013626 9.282301 20.013626 20.7326 c 0 11.450296 -8.960411 20.7326 -20.013626 20.7326 l -84.37401 0 l 0 0 c -11.053222 0 -20.013628 -9.282303 -20.013628 -20.7326 c -5.2380687e-15 -11.450298 8.960406 -20.7326 20.013628 -20.7326 z" stroke-linecap="round" />
</g>
<g transform="matrix(1.26 0 0 1.26 200.57 182.94)" style=""  >
		<text xml:space="preserve" font-family="'Open Sans', sans-serif" font-size="18" font-style="normal" font-weight="normal" style="stroke: rgb(0,0,0); stroke-opacity: 0; stroke-width: 5; stroke-dasharray: 1 10; stroke-linecap: butt; stroke-dashoffset: 0; stroke-linejoin: miter; stroke-miterlimit: 4; fill: rgb(255,0,0); fill-rule: nonzero; opacity: 1; white-space: pre;" ><tspan x="-43.09" y="5.65" >A U B U C</tspan></text>
</g>
</svg>